<?xml version="1.0" standalone="no"?>
<!DOCTYPE svg PUBLIC "-//W3C//DTD SVG 20010904//EN"
 "http://www.w3.org/TR/2001/REC-SVG-20010904/DTD/svg10.dtd">
<svg version="1.0" xmlns="http://www.w3.org/2000/svg"
 width="626.000000pt" height="626.000000pt" viewBox="0 0 626.000000 626.000000"
 preserveAspectRatio="xMidYMid meet">

<g transform="translate(0.000000,626.000000) scale(0.100000,-0.100000)"
fill="#000000" stroke="none">
<path d="M0 3130 l0 -3130 3130 0 3130 0 0 3130 0 3130 -3130 0 -3130 0 0
-3130z m1818 928 c3 -21 9 -27 30 -30 21 -2 28 -9 30 -30 3 -22 9 -28 28 -28
19 0 24 -5 24 -25 0 -21 5 -25 30 -25 l30 0 0 -195 0 -195 25 0 c20 0 25 5 25
25 0 20 5 25 25 25 22 0 24 4 27 58 3 54 4 57 31 60 21 3 27 9 27 28 0 19 5
24 24 24 19 0 25 6 28 28 2 21 9 28 31 30 21 3 27 9 27 28 l0 24 115 0 115 0
0 -25 c0 -20 5 -25 25 -25 21 0 25 -5 25 -30 0 -27 3 -30 30 -30 25 0 30 -4
30 -25 0 -20 5 -25 25 -25 20 0 25 5 25 25 0 20 5 25 24 25 19 0 25 6 28 28 2
21 9 28 31 30 21 3 27 9 27 28 l0 24 140 0 140 0 0 -25 c0 -21 5 -25 30 -25
27 0 30 -3 30 -30 0 -29 1 -30 49 -30 47 0 50 2 53 28 2 21 9 28 31 30 21 3
27 9 27 28 0 22 3 24 55 24 l55 0 0 55 c0 54 0 55 30 55 27 0 30 3 30 30 0 25
4 30 24 30 19 0 25 6 28 28 3 26 5 27 58 27 53 0 55 -1 58 -27 3 -22 9 -28 28
-28 20 0 24 -5 24 -30 0 -25 4 -30 24 -30 19 0 25 6 28 28 3 26 6 27 61 30
l57 3 0 -31 c0 -27 3 -30 30 -30 25 0 30 -4 30 -25 0 -20 5 -25 25 -25 21 0
25 -5 25 -30 0 -30 1 -30 55 -30 52 0 55 -1 55 -25 0 -20 5 -25 25 -25 20 0
25 5 25 25 l0 25 115 0 115 0 0 -25 c0 -24 3 -25 55 -25 52 0 55 1 55 25 l0
25 140 0 140 0 0 -24 c0 -19 6 -25 28 -28 21 -2 28 -9 30 -30 3 -22 9 -28 28
-28 19 0 24 -5 24 -24 0 -19 6 -25 28 -28 l27 -3 3 -252 2 -253 -30 0 c-30 0
-30 0 -30 -55 0 -52 -2 -55 -24 -55 -19 0 -25 -6 -28 -27 -2 -22 -9 -29 -30
-31 -22 -3 -28 -9 -28 -28 0 -22 3 -24 55 -24 52 0 55 -2 55 -24 0 -19 6 -25
28 -28 21 -2 28 -9 30 -30 3 -22 9 -28 28 -28 19 0 24 -5 24 -25 0 -21 5 -25
30 -25 l30 0 0 -200 0 -200 -30 0 c-25 0 -30 -4 -30 -25 0 -20 -5 -25 -25 -25
-21 0 -25 -5 -25 -30 0 -27 -3 -30 -30 -30 -25 0 -30 -4 -30 -25 l0 -25 -1560
0 -1560 0 0 25 c0 20 -5 25 -25 25 -21 0 -25 5 -25 30 0 27 -3 30 -30 30 -25
0 -30 4 -30 25 0 20 -5 25 -25 25 l-25 0 0 200 0 200 25 0 c20 0 25 5 25 25 0
21 5 25 30 25 27 0 30 3 30 30 0 25 4 30 25 30 20 0 25 5 25 25 l0 25 1308 2
1307 3 3 22 c3 17 -2 22 -25 25 -22 2 -29 9 -31 30 -3 21 -9 27 -30 30 -21 2
-27 8 -27 28 0 20 6 26 28 28 21 3 27 9 27 27 0 18 -6 24 -27 27 -22 2 -28 8
-28 28 0 23 -4 25 -53 28 l-52 3 0 -30 c0 -28 -3 -31 -30 -31 -25 0 -30 -4
-30 -25 0 -21 -5 -25 -30 -25 -25 0 -30 4 -30 25 0 20 -5 25 -25 25 -21 0 -25
5 -25 30 0 30 -1 30 -55 30 -54 0 -55 0 -55 -30 0 -25 -4 -30 -25 -30 -20 0
-25 -5 -25 -25 0 -22 -4 -25 -36 -25 -33 0 -36 2 -32 25 5 22 2 25 -23 25 -26
0 -29 4 -29 30 0 25 -4 30 -25 30 -21 0 -25 -5 -25 -30 0 -27 -3 -30 -30 -30
-25 0 -30 -4 -30 -25 0 -21 -5 -25 -30 -25 -25 0 -30 4 -30 25 0 20 -5 25 -25
25 -20 0 -25 -5 -25 -25 0 -25 -1 -25 -85 -25 -83 0 -85 0 -85 24 0 19 -6 25
-27 28 -22 2 -29 9 -31 31 -3 23 -8 28 -25 25 -16 -2 -23 -11 -25 -30 -3 -22
-9 -28 -28 -28 -19 0 -24 -5 -24 -25 0 -21 -5 -25 -30 -25 -25 0 -30 4 -30 25
0 24 -3 25 -55 25 -52 0 -55 -1 -55 -25 0 -25 -1 -25 -85 -25 -83 0 -85 0 -85
24 0 19 -6 25 -27 28 -22 2 -29 9 -31 31 -3 21 -9 27 -28 27 -19 0 -24 5 -24
25 0 20 -5 25 -25 25 -20 0 -25 -5 -25 -25 0 -21 -5 -25 -30 -25 -27 0 -30 -3
-30 -30 0 -30 -1 -30 -55 -30 -52 0 -55 -1 -55 -25 0 -24 -3 -25 -60 -25 -57
0 -60 1 -60 25 0 24 -3 25 -55 25 -54 0 -55 0 -55 30 0 25 -4 30 -25 30 -21 0
-25 -5 -25 -30 l0 -30 -80 0 c-79 0 -80 0 -80 -25 l0 -25 -115 0 -115 0 0 25
c0 21 -5 25 -30 25 -27 0 -30 3 -30 30 0 25 -4 30 -25 30 l-25 0 0 360 0 360
25 0 c21 0 25 5 25 30 0 27 3 30 30 30 25 0 30 4 30 23 0 30 9 39 35 35 13 -2
21 -12 23 -30z"/>
<path d="M1763 4013 c-9 -23 6 -45 29 -41 33 4 32 51 0 53 -13 1 -26 -4 -29
-12z"/>
<path d="M3533 4023 c-38 -4 -43 -7 -43 -29 0 -22 4 -24 50 -24 49 0 50 1 50
30 0 17 -3 29 -7 28 -5 -1 -27 -3 -50 -5z"/>
<path d="M1710 3610 l0 -360 25 0 c20 0 25 -5 25 -25 l0 -25 110 0 110 0 0 25
0 25 -110 0 -110 0 0 360 0 360 -25 0 -25 0 0 -360z"/>
<path d="M1820 3945 c0 -20 5 -25 25 -25 20 0 25 5 25 25 0 20 -5 25 -25 25
-20 0 -25 -5 -25 -25z"/>
<path d="M3430 3885 l0 -85 -85 0 c-84 0 -85 0 -85 -25 0 -20 -5 -25 -25 -25
-20 0 -25 -5 -25 -25 0 -20 5 -25 25 -25 20 0 25 5 25 25 l0 25 110 0 110 0 0
110 0 110 -25 0 c-25 0 -25 -1 -25 -85z"/>
<path d="M3600 3640 l0 -330 25 0 c21 0 25 -5 25 -30 0 -27 3 -30 30 -30 25 0
30 -4 30 -25 0 -20 5 -25 25 -25 20 0 25 5 25 25 0 20 -5 25 -25 25 l-25 0 -2
248 -3 247 -27 3 c-27 3 -28 6 -28 58 0 53 0 54 30 54 30 0 30 -1 30 -55 l0
-55 55 0 55 0 0 -220 0 -220 55 0 55 0 0 220 0 220 55 0 c52 0 55 -1 55 -25 0
-20 5 -25 25 -25 20 0 25 5 25 25 0 20 -5 25 -25 25 -20 0 -25 5 -25 25 0 24
-3 25 -55 25 -52 0 -55 -1 -55 -25 0 -24 -3 -25 -55 -25 -52 0 -55 1 -55 25 0
21 -5 25 -30 25 -27 0 -30 3 -30 30 0 25 -4 30 -25 30 -20 0 -25 5 -25 25 0
21 -5 25 -30 25 -27 0 -30 3 -30 30 0 25 -4 30 -25 30 l-25 0 0 -330z"/>
<path d="M3710 3945 c0 -24 3 -25 55 -25 52 0 55 1 55 25 0 24 -3 25 -55 25
-52 0 -55 -1 -55 -25z"/>
<path d="M1872 3638 l3 -273 53 -3 c50 -3 52 -2 52 22 0 21 -5 26 -25 26 l-25
0 0 250 0 250 -31 0 -31 0 4 -272z"/>
<path d="M3820 3860 c0 -47 2 -50 25 -50 23 0 25 3 25 50 0 47 -2 50 -25 50
-23 0 -25 -3 -25 -50z"/>
<path d="M2260 3775 c0 -20 -5 -25 -25 -25 -20 0 -25 -5 -25 -25 0 -20 5 -25
25 -25 20 0 25 5 25 25 l0 25 110 0 110 0 0 25 0 25 -110 0 -110 0 0 -25z"/>
<path d="M2760 3775 c0 -20 -5 -25 -25 -25 -20 0 -25 -5 -25 -25 0 -20 5 -25
25 -25 20 0 25 5 25 25 l0 25 140 0 140 0 0 -25 c0 -20 5 -25 25 -25 20 0 25
5 25 25 0 20 -5 25 -25 25 -20 0 -25 5 -25 25 l0 25 -140 0 -140 0 0 -25z"/>
<path d="M4100 3775 l0 -25 110 0 110 0 0 -85 c0 -84 0 -85 25 -85 22 0 24 4
27 58 3 54 4 57 31 60 21 3 27 9 27 28 l0 24 140 0 140 0 0 -25 c0 -20 5 -25
25 -25 20 0 25 5 25 25 0 20 -5 25 -24 25 -24 0 -41 23 -30 41 3 5 -54 9 -135
9 l-141 0 0 -25 c0 -24 -3 -25 -55 -25 -52 0 -55 1 -55 25 l0 25 -110 0 -110
0 0 -25z"/>
<path d="M2490 3725 c0 -20 5 -25 25 -25 20 0 25 5 25 25 0 20 -5 25 -25 25
-20 0 -25 -5 -25 -25z"/>
<path d="M2150 3635 c0 -52 -1 -55 -25 -55 -24 0 -25 -3 -25 -55 l0 -55 -55 0
c-52 0 -55 -1 -55 -25 0 -25 1 -25 80 -25 l80 0 0 80 c0 79 0 80 25 80 24 0
25 3 25 55 0 52 -1 55 -25 55 -24 0 -25 -3 -25 -55z"/>
<path d="M2540 3665 c0 -20 5 -25 25 -25 20 0 25 5 25 25 0 20 -5 25 -25 25
-20 0 -25 -5 -25 -25z"/>
<path d="M2650 3665 c0 -20 -5 -25 -25 -25 l-25 0 0 -110 0 -110 25 0 c25 0
25 1 25 80 0 79 0 80 25 80 24 0 25 3 25 55 0 52 -1 55 -25 55 -20 0 -25 -5
-25 -25z"/>
<path d="M3100 3470 l0 -220 25 0 c21 0 25 5 25 30 0 25 4 30 24 30 22 0 24 5
28 50 3 49 2 50 -24 50 l-28 0 0 84 c0 84 0 85 26 88 25 3 27 7 28 56 l1 52
-52 0 -53 0 0 -220z"/>
<path d="M4770 3445 l0 -245 25 0 25 0 0 245 0 245 -25 0 -25 0 0 -245z"/>
<path d="M2320 3611 c0 -28 -3 -31 -30 -31 l-30 0 0 -80 0 -80 30 0 30 0 0 79
0 80 53 3 c48 3 52 5 52 28 0 23 -4 25 -52 28 l-53 3 0 -30z"/>
<path d="M2820 3610 c0 -27 -3 -30 -30 -30 l-30 0 0 -80 0 -80 30 0 30 0 0 80
0 80 55 0 55 0 0 -80 c0 -79 0 -80 25 -80 l25 0 0 110 0 110 -80 0 -80 0 0
-30z"/>
<path d="M3320 3610 c0 -27 -3 -30 -30 -30 l-30 0 0 -80 0 -80 30 0 30 0 0 80
0 80 55 0 55 0 0 -80 c0 -79 0 -80 25 -80 l25 0 0 110 0 110 -80 0 -80 0 0
-30z"/>
<path d="M4157 3634 c-4 -4 -7 -18 -7 -31 0 -18 -5 -23 -25 -23 -20 0 -25 -5
-25 -25 0 -20 5 -25 25 -25 l25 0 0 -110 0 -110 30 0 30 0 -2 163 c-3 154 -4
162 -23 165 -12 2 -24 0 -28 -4z"/>
<path d="M4490 3610 c0 -30 1 -30 55 -30 l55 0 0 -55 c0 -52 1 -55 25 -55 25
0 25 1 25 85 l0 85 -80 0 -80 0 0 -30z"/>
<path d="M2430 3500 c0 -79 0 -80 25 -80 25 0 25 1 25 80 0 79 0 80 -25 80
-25 0 -25 -1 -25 -80z"/>
<path d="M4430 3500 c0 -79 0 -80 25 -80 25 0 25 1 25 80 0 79 0 80 -25 80
-25 0 -25 -1 -25 -80z"/>
<path d="M4040 3385 l0 -135 -25 0 c-20 0 -25 -5 -25 -25 0 -20 5 -25 25 -25
20 0 25 5 25 25 0 20 5 25 25 25 l25 0 0 135 0 135 -25 0 -25 0 0 -135z"/>
<path d="M4540 3440 c0 -25 -4 -30 -25 -30 -20 0 -25 -5 -25 -25 0 -23 3 -25
50 -25 l50 0 0 55 c0 52 -1 55 -25 55 -21 0 -25 -5 -25 -30z"/>
<path d="M2320 3385 c0 -24 3 -25 55 -25 52 0 55 1 55 25 0 24 -3 25 -55 25
-52 0 -55 -1 -55 -25z"/>
<path d="M2540 3360 c0 -47 2 -50 25 -50 23 0 25 3 25 50 0 47 -2 50 -25 50
-23 0 -25 -3 -25 -50z"/>
<path d="M2650 3360 c0 -47 2 -50 25 -50 23 0 25 3 25 50 0 47 -2 50 -25 50
-23 0 -25 -3 -25 -50z"/>
<path d="M2820 3385 c0 -24 3 -25 55 -25 52 0 55 1 55 25 0 24 -3 25 -55 25
-52 0 -55 -1 -55 -25z"/>
<path d="M3320 3385 c0 -24 3 -25 55 -25 52 0 55 1 55 25 0 24 -3 25 -55 25
-52 0 -55 -1 -55 -25z"/>
<path d="M4320 3330 c0 -79 0 -80 -25 -80 -20 0 -25 -5 -25 -25 0 -20 5 -25
25 -25 20 0 25 5 25 25 0 21 5 25 30 25 25 0 30 -4 30 -25 0 -20 5 -25 25 -25
21 0 25 -5 25 -30 l0 -30 80 0 80 0 0 55 0 55 -80 0 c-79 0 -80 0 -80 25 0 21
-5 25 -30 25 -30 0 -30 1 -30 55 0 52 -1 55 -25 55 -25 0 -25 -1 -25 -80z"/>
<path d="M2150 3335 c0 -20 5 -25 25 -25 20 0 25 5 25 25 0 20 -5 25 -25 25
-20 0 -25 -5 -25 -25z"/>
<path d="M1990 3275 c0 -25 1 -25 80 -25 79 0 80 0 80 25 0 25 -1 25 -80 25
-79 0 -80 0 -80 -25z"/>
<path d="M2210 3275 c0 -24 3 -25 55 -25 52 0 55 -1 55 -25 0 -24 3 -25 55
-25 52 0 55 1 55 25 0 24 3 25 55 25 52 0 55 1 55 25 0 24 -3 25 -55 25 -52 0
-55 -1 -55 -25 0 -24 -3 -25 -55 -25 -54 0 -62 6 -56 43 0 4 -24 7 -54 7 -52
0 -55 -1 -55 -25z"/>
<path d="M2710 3275 c0 -20 5 -25 25 -25 20 0 25 5 25 25 0 20 -5 25 -25 25
-20 0 -25 -5 -25 -25z"/>
<path d="M2930 3275 c0 -24 -2 -24 -82 -27 -77 -3 -83 -5 -86 -25 -3 -22 -1
-23 82 -23 85 0 86 0 86 25 0 24 3 25 55 25 52 0 55 -1 55 -25 0 -20 5 -25 25
-25 20 0 25 5 25 25 0 20 -5 25 -25 25 -20 0 -25 5 -25 25 0 24 -3 25 -55 25
-52 0 -55 -1 -55 -25z"/>
<path d="M3210 3275 c0 -20 5 -25 25 -25 20 0 25 5 25 25 0 20 -5 25 -25 25
-20 0 -25 -5 -25 -25z"/>
<path d="M3430 3275 c0 -24 -2 -24 -82 -27 -77 -3 -83 -5 -86 -25 -3 -22 -1
-23 82 -23 85 0 86 0 86 25 0 20 5 25 25 25 20 0 25 5 25 25 0 20 -5 25 -25
25 -20 0 -25 -5 -25 -25z"/>
<path d="M3540 3275 c0 -20 -5 -25 -25 -25 -20 0 -25 -5 -25 -25 0 -20 5 -25
25 -25 20 0 25 5 25 25 0 20 5 25 25 25 20 0 25 5 25 25 0 20 -5 25 -25 25
-20 0 -25 -5 -25 -25z"/>
<path d="M3768 3275 c3 -18 11 -25 28 -25 19 0 24 5 24 25 0 21 -5 25 -29 25
-25 0 -28 -3 -23 -25z"/>
<path d="M3930 3275 c0 -20 5 -25 25 -25 20 0 25 5 25 25 0 20 -5 25 -25 25
-20 0 -25 -5 -25 -25z"/>
<path d="M4210 3275 c0 -20 5 -25 25 -25 20 0 25 5 25 25 0 20 -5 25 -25 25
-20 0 -25 -5 -25 -25z"/>
<path d="M4600 3275 c0 -20 5 -25 25 -25 20 0 25 5 25 25 0 20 -5 25 -25 25
-20 0 -25 -5 -25 -25z"/>
<path d="M4320 3165 c0 -20 5 -25 25 -25 20 0 25 5 25 25 0 20 -5 25 -25 25
-20 0 -25 -5 -25 -25z"/>
<path d="M4710 3135 l0 -55 -55 0 c-52 0 -55 -1 -55 -25 0 -24 3 -25 55 -25
52 0 55 1 55 25 0 20 5 25 25 25 24 0 25 3 25 55 0 52 -1 55 -25 55 -24 0 -25
-3 -25 -55z"/>
<path d="M4270 3111 c0 -26 4 -31 25 -31 20 0 25 -5 25 -25 0 -20 5 -25 25
-25 20 0 25 5 25 25 0 20 -5 25 -24 25 -19 0 -25 6 -28 28 -2 19 -9 28 -25 30
-20 3 -23 -1 -23 -27z"/>
<path d="M4380 2995 l0 -25 105 0 105 0 0 25 0 25 -105 0 -105 0 0 -25z"/>
<path d="M1710 2885 l0 -25 1555 0 1555 0 0 -25 c0 -20 5 -25 25 -25 20 0 25
5 25 25 0 20 -5 25 -25 25 -20 0 -25 5 -25 25 l0 25 -1555 0 -1555 0 0 -25z"/>
<path d="M1650 2835 c0 -20 5 -25 25 -25 20 0 25 5 25 25 0 20 -5 25 -25 25
-20 0 -25 -5 -25 -25z"/>
<path d="M1600 2610 l0 -190 25 0 25 0 0 190 0 190 -25 0 -25 0 0 -190z"/>
<path d="M1710 2610 l0 -190 1080 0 1080 0 0 190 0 190 -1080 0 -1080 0 0
-190z"/>
<path d="M3930 2610 l0 -190 55 0 55 0 0 190 0 190 -55 0 -55 0 0 -190z"/>
<path d="M4100 2610 l0 -190 25 0 25 0 0 190 0 190 -25 0 -25 0 0 -190z"/>
<path d="M4880 2610 l0 -190 25 0 25 0 0 190 0 190 -25 0 -25 0 0 -190z"/>
<path d="M1650 2385 c0 -20 5 -25 25 -25 20 0 25 5 25 25 0 20 -5 25 -25 25
-20 0 -25 -5 -25 -25z"/>
<path d="M4820 2385 l0 -25 -1555 0 -1555 0 0 -25 0 -25 1555 0 1555 0 0 25
c0 20 5 25 25 25 20 0 25 5 25 25 0 20 -5 25 -25 25 -20 0 -25 -5 -25 -25z"/>
</g>
</svg>
