<?xml version="1.0" standalone="no"?>
<!DOCTYPE svg PUBLIC "-//W3C//DTD SVG 20010904//EN"
 "http://www.w3.org/TR/2001/REC-SVG-20010904/DTD/svg10.dtd">
<svg version="1.0" xmlns="http://www.w3.org/2000/svg"
 width="250.000000pt" height="250.000000pt" viewBox="0 0 250.000000 250.000000"
 preserveAspectRatio="xMidYMid meet">

<g transform="translate(0.000000,250.000000) scale(0.100000,-0.100000)"
fill="#000000" stroke="none">
<path d="M885 2405 c-58 -20 -117 -90 -153 -182 -79 -198 -81 -431 -6 -648
l26 -75 -24 -62 c-20 -56 -23 -80 -23 -213 1 -112 5 -161 17 -192 16 -44 7
-58 -20 -31 -8 8 -43 13 -95 13 -70 0 -87 -3 -115 -23 -38 -28 -72 -89 -72
-132 0 -17 -12 -48 -26 -69 -14 -22 -28 -57 -31 -78 -11 -84 42 -180 112 -203
32 -10 34 -14 27 -38 -15 -55 -7 -146 16 -184 12 -19 22 -44 22 -54 0 -30 47
-89 91 -113 26 -15 64 -25 103 -28 81 -6 137 22 186 95 39 57 74 75 212 107
76 18 77 18 170 -5 124 -31 149 -44 182 -97 63 -99 175 -130 281 -78 53 26
105 82 105 113 0 7 12 38 26 68 22 46 25 66 22 112 -3 32 -8 64 -12 73 -6 13
1 20 27 28 65 22 117 101 117 179 0 21 -11 60 -24 86 -13 25 -26 65 -30 87 -9
57 -30 93 -73 126 -33 25 -44 28 -112 28 -52 0 -86 -6 -107 -18 l-32 -16 14
45 c20 68 32 211 23 284 -4 36 -17 95 -28 131 l-21 67 24 63 c101 268 54 659
-95 794 -118 106 -253 45 -344 -157 l-39 -87 -47 97 c-51 105 -108 171 -168
191 -43 14 -56 13 -106 -4z m111 -41 c63 -30 123 -127 179 -292 l32 -94 28 88
c71 230 175 345 274 305 103 -43 177 -212 188 -426 6 -131 -6 -227 -48 -352
l-30 -92 24 -78 c35 -111 40 -173 22 -286 -26 -175 -79 -251 -195 -284 l-60
-16 0 -64 c0 -34 3 -63 8 -63 4 0 47 22 96 48 84 44 91 51 119 105 64 125 208
160 286 71 26 -28 31 -43 31 -83 0 -33 5 -53 17 -62 21 -18 43 -71 43 -106 0
-15 -9 -46 -19 -69 -22 -49 -68 -74 -135 -74 l-47 0 32 -40 c40 -50 52 -134
24 -176 -9 -14 -23 -47 -31 -73 -16 -53 -43 -83 -96 -106 -87 -36 -165 -10
-221 73 -40 59 -62 71 -195 107 l-116 32 -105 -29 c-147 -39 -158 -44 -203
-105 -50 -68 -90 -93 -148 -93 -78 1 -170 59 -170 109 0 9 -11 40 -25 69 -38
83 -30 146 28 210 l20 22 -47 0 c-101 0 -150 48 -151 147 0 54 3 65 28 91 17
17 25 35 22 44 -11 27 13 93 44 122 52 50 152 51 216 1 17 -13 45 -50 63 -82
29 -55 37 -62 120 -106 49 -26 92 -47 96 -47 3 0 6 29 6 64 l0 64 -49 12 c-78
18 -128 56 -161 123 -41 83 -53 153 -48 287 4 93 9 127 29 176 l25 61 -24 64
c-59 156 -77 356 -46 506 32 158 88 262 157 293 52 24 69 24 113 4z"/>
<path d="M912 2285 c-31 -23 -67 -89 -94 -175 -19 -63 -23 -96 -22 -210 0
-146 21 -254 69 -355 23 -50 23 -50 5 -85 -76 -140 -72 -356 9 -473 22 -32 37
-41 100 -60 59 -17 78 -28 90 -49 l16 -28 120 0 120 0 16 29 c13 22 29 31 70
41 111 26 138 55 166 180 26 118 21 209 -16 313 l-32 88 25 64 c48 117 60 189
60 340 -1 124 -4 149 -27 220 -31 94 -56 137 -92 161 -25 16 -27 16 -53 -3
-59 -43 -124 -189 -164 -366 -17 -77 -19 -115 -15 -234 l5 -143 -26 20 c-26
21 -54 19 -83 -6 -14 -12 -15 1 -11 131 4 124 1 159 -18 242 -41 180 -114 338
-167 362 -29 13 -24 14 -51 -4z m83 -132 c46 -68 67 -155 72 -303 6 -147 -9
-251 -47 -337 l-19 -44 -25 18 c-40 29 -73 89 -98 176 -19 67 -23 106 -23 212
0 114 3 137 24 190 25 63 66 125 81 125 5 0 21 -17 35 -37z m506 -18 c61 -108
76 -256 44 -416 -22 -105 -52 -175 -96 -217 -31 -31 -35 -32 -47 -15 -7 10
-23 50 -35 88 -19 60 -22 93 -22 235 0 143 3 174 22 235 26 81 68 148 90 143
9 -2 28 -25 44 -53z m-403 -895 c100 -61 54 -210 -65 -210 -57 0 -111 31 -119
68 -3 15 -7 33 -10 40 -7 25 25 82 58 102 18 11 49 20 68 20 19 0 50 -9 68
-20z m363 -6 c54 -48 58 -122 9 -169 -58 -56 -139 -50 -193 14 -46 56 -32 119
37 162 39 25 116 21 147 -7z m-205 -230 c46 -48 45 -87 -3 -113 -40 -20 -104
-9 -125 23 -17 24 -7 59 26 92 19 19 42 34 51 34 10 0 33 -16 51 -36z"/>
<path d="M556 884 c-11 -10 -16 -34 -16 -73 0 -52 -3 -59 -30 -79 -34 -25 -38
-55 -14 -90 14 -20 23 -22 112 -22 115 0 190 -19 341 -84 106 -46 118 -53 110
-61 -8 -7 -178 -35 -215 -35 -19 0 -61 9 -95 21 -50 17 -65 19 -88 9 -55 -22
-67 -94 -23 -132 23 -19 27 -29 21 -46 -5 -12 -6 -29 -2 -37 8 -22 56 -45 93
-45 33 0 52 16 98 82 37 54 79 74 244 118 l114 30 111 -30 c166 -43 206 -63
250 -124 47 -64 61 -75 96 -76 61 0 111 48 89 86 -7 13 -3 23 19 42 38 31 40
82 4 117 -30 30 -44 31 -120 4 -47 -17 -74 -20 -123 -15 -76 7 -182 28 -182
36 0 14 209 101 299 125 33 8 101 15 153 15 105 0 128 11 128 63 0 24 -33 67
-51 67 -5 0 -7 27 -6 59 2 72 -12 91 -63 91 -47 0 -94 -36 -110 -85 -6 -19
-28 -48 -48 -66 -42 -37 -413 -222 -445 -221 -30 0 -404 182 -444 216 -17 14
-41 47 -53 71 -12 25 -33 54 -47 65 -31 24 -85 26 -107 4z"/>
<path d="M1080 755 c0 -63 1 -66 33 -85 17 -11 42 -20 55 -20 21 0 22 4 22 85
l0 85 -55 0 -55 0 0 -65z"/>
<path d="M1220 734 l0 -86 38 7 c59 11 72 29 72 102 l0 63 -55 0 -55 0 0 -86z"/>
</g>
</svg>
